<svg width="16" viewBox="0 0 16 16" fill="none" xmlns="http://www.w3.org/2000/svg">
	<path d="M4.25062 3.72265C4.09745 3.95241 4.15953 4.26285 4.3893 4.41603C4.61906 4.5692 4.9295 4.50711 5.08267 4.27735L4.25062 3.72265ZM5.60416 2.59373L6.02018 2.87108V2.87108L5.60416 2.59373ZM10.3958 2.59373L10.8118 2.31638L10.3958 2.59373ZM10.9173 4.27735C11.0705 4.50711 11.3809 4.5692 11.6107 4.41603C11.8404 4.26285 11.9025 3.95241 11.7493 3.72265L10.9173 4.27735ZM9.49998 9C9.49998 9.82843 8.82841 10.5 7.99998 10.5V11.5C9.38069 11.5 10.5 10.3807 10.5 9H9.49998ZM7.99998 10.5C7.17155 10.5 6.49998 9.82843 6.49998 9H5.49998C5.49998 10.3807 6.61927 11.5 7.99998 11.5V10.5ZM6.49998 9C6.49998 8.17157 7.17155 7.5 7.99998 7.5V6.5C6.61927 6.5 5.49998 7.61929 5.49998 9H6.49998ZM7.99998 7.5C8.82841 7.5 9.49998 8.17157 9.49998 9H10.5C10.5 7.61929 9.38069 6.5 7.99998 6.5V7.5ZM5.08267 4.27735L6.02018 2.87108L5.18813 2.31638L4.25062 3.72265L5.08267 4.27735ZM6.71356 2.5H9.2864V1.5H6.71356V2.5ZM9.97978 2.87108L10.9173 4.27735L11.7493 3.72265L10.8118 2.31638L9.97978 2.87108ZM9.2864 2.5C9.56503 2.5 9.82522 2.63925 9.97978 2.87108L10.8118 2.31638C10.4718 1.80635 9.89938 1.5 9.2864 1.5V2.5ZM6.02018 2.87108C6.17474 2.63925 6.43493 2.5 6.71356 2.5V1.5C6.10058 1.5 5.52815 1.80635 5.18813 2.31638L6.02018 2.87108ZM3.99998 4.5H12V3.5H3.99998V4.5ZM14.1666 6.66667V11.3333H15.1666V6.66667H14.1666ZM12 13.5H3.99998V14.5H12V13.5ZM1.83331 11.3333V6.66667H0.833313V11.3333H1.83331ZM3.99998 13.5C2.80336 13.5 1.83331 12.53 1.83331 11.3333H0.833313C0.833313 13.0822 2.25108 14.5 3.99998 14.5V13.5ZM14.1666 11.3333C14.1666 12.53 13.1966 13.5 12 13.5V14.5C13.7489 14.5 15.1666 13.0822 15.1666 11.3333H14.1666ZM12 4.5C13.1966 4.5 14.1666 5.47005 14.1666 6.66667H15.1666C15.1666 4.91777 13.7489 3.5 12 3.5V4.5ZM3.99998 3.5C2.25108 3.5 0.833313 4.91777 0.833313 6.66667H1.83331C1.83331 5.47005 2.80336 4.5 3.99998 4.5V3.5Z" fill="currentColor" />
</svg>
