<svg width="32" height="20" viewBox="0 0 32 20" fill="none" xmlns="http://www.w3.org/2000/svg">
<path fill-rule="evenodd" clip-rule="evenodd" d="M16 17.2878C14.3053 18.7501 12.107 19.6328 9.70488 19.6328C4.34502 19.6328 0 15.2379 0 9.81641C0 4.39496 4.34502 0 9.70488 0C12.107 0 14.3053 0.882744 16 2.34502C17.6946 0.882744 19.8929 0 22.295 0C27.6549 0 31.9999 4.39496 31.9999 9.81641C31.9999 15.2379 27.6549 19.6328 22.295 19.6328C19.8929 19.6328 17.6946 18.7501 16 17.2878Z" fill="#ED0006"/>
<path fill-rule="evenodd" clip-rule="evenodd" d="M16 17.2878C18.0867 15.4873 19.4098 12.8081 19.4098 9.81641C19.4098 6.82467 18.0867 4.14553 16 2.34502C17.6947 0.882744 19.893 0 22.2951 0C27.6549 0 32 4.39496 32 9.81641C32 15.2379 27.6549 19.6328 22.2951 19.6328C19.893 19.6328 17.6947 18.7501 16 17.2878Z" fill="#F9A000"/>
<path fill-rule="evenodd" clip-rule="evenodd" d="M15.9999 17.2878C18.0866 15.4873 19.4097 12.8082 19.4097 9.81643C19.4097 6.82469 18.0866 4.14554 15.9999 2.34503C13.9132 4.14554 12.5901 6.82469 12.5901 9.81643C12.5901 12.8082 13.9132 15.4873 15.9999 17.2878Z" fill="#FF5E00"/>
</svg>
