<svg width="95" height="91" viewBox="0 0 95 91" fill="none" xmlns="http://www.w3.org/2000/svg">
<path d="M71.2509 6.09651C78.4152 10.0589 84.375 15.7449 88.5402 22.5916C92.7054 29.4383 94.9316 37.2084 94.9985 45.1325C95.0653 53.0566 92.9704 60.8601 88.9212 67.7704C84.872 74.6806 79.0089 80.4581 71.9123 84.5309C64.8157 88.6036 56.7317 90.8303 48.4606 90.9907C40.1894 91.151 32.018 89.2394 24.7552 85.4451C17.4924 81.6507 11.39 76.1052 7.05225 69.3575C2.71448 62.6098 0.291698 54.8939 0.0237508 46.9737L0 45.4995L0.0237508 44.0253C0.289769 36.1674 2.67688 28.5096 6.95237 21.7985C11.2279 15.0874 17.2458 9.55202 24.4195 5.73198C31.5933 1.91193 39.6779 -0.0623841 47.8854 0.00150262C56.0928 0.0653893 64.1429 2.1653 71.2509 6.09651ZM65.1091 33.1827C64.2911 32.3993 63.2029 31.9286 62.0485 31.8591C60.8941 31.7896 59.7529 32.1259 58.839 32.805L58.3925 33.1827L42.7505 48.1613L36.6087 42.2827L36.1622 41.905C35.2482 41.2264 34.1072 40.8905 32.9531 40.9602C31.799 41.03 30.7111 41.5006 29.8934 42.2838C29.0757 43.0671 28.5843 44.1092 28.5115 45.2147C28.4387 46.3202 28.7894 47.4132 29.4979 48.2887L29.8921 48.7164L39.3922 57.8163L39.8387 58.194C40.6718 58.8131 41.6962 59.1491 42.7505 59.1491C43.8049 59.1491 44.8293 58.8131 45.6623 58.194L46.1088 57.8163L65.1091 39.6164L65.5033 39.1887C66.2123 38.3132 66.5634 37.2201 66.4908 36.1143C66.4182 35.0085 65.9269 33.9661 65.1091 33.1827Z" fill="#046E0E"/>
</svg>
