<svg width="95" height="91" viewBox="0 0 95 91" fill="none" xmlns="http://www.w3.org/2000/svg">
<path d="M47.5 0C73.7343 0 95 20.3703 95 45.5C95 70.6297 73.7343 91 47.5 91C21.2658 91 0 70.6297 0 45.5C0 20.3703 21.2658 0 47.5 0ZM64.6 23.66C64.101 23.3015 63.5331 23.0406 62.9289 22.8924C62.3246 22.7441 61.6958 22.7112 61.0782 22.7957C60.4607 22.8802 59.8666 23.0804 59.3299 23.3848C58.7932 23.6893 58.3243 24.092 57.95 24.57L47.5 37.9152L37.05 24.57C36.6757 24.092 36.2068 23.6893 35.6701 23.3848C35.1334 23.0804 34.5393 22.8802 33.9218 22.7957C33.3042 22.7112 32.6754 22.7441 32.0711 22.8924C31.4669 23.0406 30.899 23.3015 30.4 23.66C29.901 24.0185 29.4806 24.4677 29.1627 24.9818C28.8449 25.496 28.636 26.065 28.5477 26.6565C28.4595 27.248 28.4938 27.8504 28.6486 28.4292C28.8034 29.008 29.0757 29.552 29.45 30.03L41.5625 45.5L29.45 60.97C28.6941 61.9354 28.3696 63.1489 28.5477 64.3435C28.7259 65.5381 29.3922 66.616 30.4 67.34C31.4078 68.064 32.6746 68.3749 33.9218 68.2043C35.1689 68.0336 36.2941 67.3954 37.05 66.43L47.5 53.0849L57.95 66.43C58.7059 67.3954 59.8311 68.0336 61.0782 68.2043C62.3254 68.3749 63.5922 68.064 64.6 67.34C65.6078 66.616 66.2741 65.5381 66.4523 64.3435C66.6304 63.1489 66.3059 61.9354 65.55 60.97L53.4375 45.5L65.55 30.03C65.9243 29.552 66.1966 29.008 66.3514 28.4292C66.5062 27.8504 66.5405 27.248 66.4523 26.6565C66.364 26.065 66.1551 25.496 65.8373 24.9818C65.5194 24.4677 65.099 24.0185 64.6 23.66Z" fill="#FD0307"/>
</svg>
