<svg width="38" height="10" viewBox="0 0 38 10" fill="none" xmlns="http://www.w3.org/2000/svg">
<path fill-rule="evenodd" clip-rule="evenodd" d="M4.50339 0.0012207H1.58442C1.38467 0.0012207 1.21479 0.146378 1.18364 0.343478L0.00306207 7.82771C-0.0204029 7.97544 0.0939801 8.10855 0.243797 8.10855H1.63734C1.83709 8.10855 2.00697 7.96339 2.03812 7.7659L2.35654 5.74731C2.38725 5.54962 2.55755 5.40466 2.75688 5.40466H3.68093C5.60375 5.40466 6.7134 4.47426 7.00336 2.63066C7.13392 1.82409 7.00889 1.19033 6.63104 0.746365C6.21625 0.259147 5.4803 0.0012207 4.50339 0.0012207ZM4.84015 2.73474C4.68056 3.78205 3.88026 3.78205 3.10645 3.78205H2.66597L2.97498 1.82607C2.99333 1.70796 3.09576 1.62087 3.21528 1.62087H3.41716C3.94427 1.62087 4.44156 1.62087 4.69853 1.92126C4.85161 2.10058 4.89862 2.3668 4.84015 2.73474ZM13.2289 2.70116H11.8311C11.712 2.70116 11.6091 2.78826 11.5907 2.90656L11.5289 3.2974L11.4311 3.15579C11.1285 2.71657 10.4538 2.56983 9.78025 2.56983C8.23547 2.56983 6.91625 3.73959 6.65928 5.38057C6.52576 6.19898 6.71558 6.98165 7.17994 7.52752C7.60598 8.02936 8.21552 8.2385 8.9406 8.2385C10.1852 8.2385 10.8755 7.43825 10.8755 7.43825L10.8131 7.82673C10.7896 7.97524 10.9039 8.10835 11.0528 8.10835H12.312C12.5123 8.10835 12.6812 7.96319 12.7128 7.7657L13.4683 2.982C13.4922 2.83487 13.3782 2.70116 13.2289 2.70116ZM11.2804 5.42144C11.1455 6.21991 10.5117 6.75591 9.70341 6.75591C9.29752 6.75591 8.973 6.62577 8.76481 6.3791C8.55821 6.1342 8.4796 5.78543 8.54537 5.39716C8.67139 4.6054 9.31589 4.05202 10.1119 4.05202C10.5087 4.05202 10.8314 4.18375 11.044 4.43259C11.2569 4.684 11.3414 5.03475 11.2804 5.42144ZM19.2688 2.70097H20.6735C20.8702 2.70097 20.985 2.92157 20.8732 3.08292L16.2013 9.82576C16.1257 9.93498 16.001 9.99995 15.8679 9.99995H14.465C14.2674 9.99995 14.1521 9.77757 14.2664 9.61582L15.7212 7.56267L14.174 3.02268C14.1205 2.86488 14.237 2.70097 14.4049 2.70097H15.7852C15.9645 2.70097 16.1227 2.81867 16.1745 2.99029L16.9955 5.7323L18.933 2.87891C19.0088 2.76752 19.1348 2.70097 19.2688 2.70097Z" fill="#253B80"/>
<path fill-rule="evenodd" clip-rule="evenodd" d="M34.4992 7.82689L35.6972 0.20579C35.7156 0.0874906 35.8181 0.000394988 35.9372 0H37.2858C37.4347 0 37.5491 0.133506 37.5256 0.281231L36.3442 7.76507C36.3134 7.96257 36.1436 8.10773 35.9435 8.10773H34.739C34.5901 8.10773 34.4757 7.97461 34.4992 7.82689ZM25.3248 0.000395525H22.4053C22.206 0.000395525 22.0361 0.145553 22.0049 0.342652L20.8244 7.82689C20.8009 7.97461 20.9152 8.10773 21.0643 8.10773H22.5623C22.7016 8.10773 22.8207 8.00621 22.8424 7.86797L23.1774 5.74649C23.2082 5.54879 23.3785 5.40383 23.5777 5.40383H24.5013C26.4246 5.40383 27.534 4.47344 27.8242 2.62983C27.9551 1.82327 27.8293 1.18951 27.4516 0.745539C27.0371 0.258321 26.3017 0.000395525 25.3248 0.000395525ZM25.6615 2.73391C25.5024 3.78122 24.702 3.78122 23.9277 3.78122H23.4877L23.7972 1.82524C23.8156 1.70714 23.9171 1.62004 24.037 1.62004H24.2388C24.7656 1.62004 25.2634 1.62004 25.5201 1.92043C25.6734 2.09976 25.72 2.36598 25.6615 2.73391ZM34.0495 2.70034H32.6527C32.5326 2.70034 32.4306 2.78743 32.4127 2.90573L32.3509 3.29657L32.2527 3.15497C31.9501 2.71574 31.2758 2.569 30.6022 2.569C29.0575 2.569 27.7386 3.73876 27.4817 5.37974C27.3485 6.19816 27.5376 6.98082 28.0019 7.5267C28.4288 8.02853 29.0375 8.23768 29.7626 8.23768C31.0071 8.23768 31.6973 7.43743 31.6973 7.43743L31.6351 7.8259C31.6115 7.97442 31.7259 8.10753 31.8758 8.10753H33.1344C33.3337 8.10753 33.5036 7.96237 33.5348 7.76487L34.2907 2.98117C34.3138 2.83404 34.1994 2.70034 34.0495 2.70034ZM32.1012 5.42062C31.9671 6.21909 31.3325 6.75509 30.524 6.75509C30.1189 6.75509 29.7938 6.62494 29.5854 6.37827C29.3788 6.13338 29.3012 5.7846 29.3662 5.39633C29.4928 4.60458 30.1365 4.0512 30.9325 4.0512C31.3295 4.0512 31.652 4.18292 31.8648 4.43177C32.0785 4.68318 32.163 5.03393 32.1012 5.42062Z" fill="#179BD7"/>
</svg>
