<svg width="28" height="28" viewBox="0 0 28 28" fill="none" xmlns="http://www.w3.org/2000/svg">
<path d="M20.6409 12.9775C20.5203 12.9197 20.3977 12.864 20.2736 12.8107C20.0575 8.82849 17.8815 6.54865 14.2278 6.52531C14.2113 6.52521 14.1948 6.52521 14.1783 6.52521C11.9928 6.52521 10.1753 7.45805 9.05658 9.15552L11.066 10.5339C11.9017 9.266 13.2133 8.9957 14.1792 8.9957C14.1904 8.9957 14.2016 8.9957 14.2126 8.9958C15.4156 9.00347 16.3235 9.35325 16.911 10.0354C17.3386 10.532 17.6246 11.2182 17.7662 12.0843C16.6996 11.903 15.546 11.8473 14.3129 11.918C10.8391 12.1181 8.60583 14.1441 8.75582 16.9592C8.83193 18.3872 9.54333 19.6157 10.7589 20.4183C11.7866 21.0967 13.1103 21.4285 14.486 21.3534C16.3027 21.2537 17.728 20.5606 18.7223 19.2932C19.4774 18.3307 19.955 17.0834 20.1659 15.5117C21.0317 16.0342 21.6734 16.7218 22.0277 17.5484C22.6303 18.9535 22.6655 21.2625 20.7814 23.1449C19.1308 24.794 17.1465 25.5074 14.1478 25.5294C10.8215 25.5048 8.3058 24.438 6.67018 22.3587C5.13855 20.4117 4.347 17.5995 4.31747 14C4.347 10.4005 5.13855 7.58823 6.67018 5.64123C8.3058 3.56196 10.8214 2.49521 14.1478 2.47049C17.4983 2.4954 20.0578 3.56729 21.756 5.65658C22.5888 6.68115 23.2166 7.96962 23.6304 9.47192L25.9852 8.84365C25.4835 6.99449 24.6941 5.40104 23.6199 4.07954C21.4428 1.40097 18.2587 0.0284591 14.156 0H14.1396C10.0453 0.0283602 6.89681 1.4061 4.78167 4.0949C2.89948 6.4876 1.9286 9.81687 1.89598 13.9902L1.89587 14L1.89598 14.0098C1.9286 18.1831 2.89948 21.5125 4.78167 23.9051C6.89681 26.5939 10.0453 27.9717 14.1396 28H14.156C17.7961 27.9748 20.3619 27.0217 22.4756 24.9099C25.241 22.1471 25.1577 18.684 24.2463 16.5581C23.5924 15.0335 22.3456 13.7953 20.6409 12.9775ZM14.3559 18.8864C12.8334 18.9722 11.2517 18.2888 11.1737 16.8251C11.1159 15.7398 11.9461 14.5288 14.4494 14.3845C14.7361 14.368 15.0174 14.3599 15.2937 14.3599C16.203 14.3599 17.0536 14.4482 17.827 14.6173C17.5385 18.2197 15.8466 18.8046 14.3559 18.8864Z" fill="white"/>
</svg>
