<svg width="28" height="28" viewBox="0 0 28 28" fill="none" xmlns="http://www.w3.org/2000/svg">
<path d="M10.7906 11.0269V9.93583C10.4129 9.87581 10.0314 9.84292 9.64899 9.83742C5.94706 9.82958 2.66952 12.2351 1.55785 15.776C0.446218 19.3169 1.75839 23.1713 4.79723 25.2914C2.5209 22.8486 1.88882 19.2923 3.18335 16.2113C4.47789 13.1303 7.45728 11.0998 10.7906 11.0269Z" fill="#25F4EE"/>
<path d="M10.9959 23.3867C13.0658 23.3839 14.7672 21.7488 14.8578 19.6752V1.17158H18.2291C18.1603 0.784941 18.1274 0.39273 18.131 0L13.52 0V18.4858C13.4433 20.5699 11.7379 22.2207 9.65815 22.2241C9.03664 22.2188 8.42527 22.0655 7.87439 21.7769C8.2314 22.2729 8.70026 22.6773 9.24275 22.957C9.78523 23.2368 10.3859 23.384 10.9959 23.3867ZM24.5257 7.44977V6.42127C23.285 6.4217 22.0718 6.05456 21.0385 5.36596C21.9443 6.42191 23.1685 7.15339 24.5257 7.44977Z" fill="#25F4EE"/>
<path d="M21.0387 5.36594C20.0208 4.20361 19.4597 2.70947 19.4601 1.1626H18.2293C18.3883 2.01785 18.7194 2.83165 19.2024 3.55434C19.6854 4.27702 20.3102 4.89343 21.0387 5.36594ZM9.64947 14.4613C7.87325 14.4704 6.33119 15.6906 5.90934 17.4208C5.48747 19.1509 6.29407 20.9469 7.86571 21.7769C7.01413 20.598 6.89383 19.0397 7.55429 17.7434C8.21483 16.4471 9.54449 15.6318 10.9962 15.6328C11.3833 15.6377 11.7677 15.6979 12.1378 15.8117V11.1075C11.7599 11.0507 11.3784 11.0208 10.9962 11.0181H10.7911V14.5954C10.419 14.4953 10.0345 14.4502 9.64947 14.4613Z" fill="#FE2C55"/>
<path d="M24.5258 7.44922V11.0265C22.229 11.0221 19.9917 10.293 18.131 8.94273V18.3421C18.1212 23.0323 14.3267 26.8293 9.64931 26.8293C7.91225 26.8324 6.21703 26.2949 4.79749 25.291C7.16651 27.846 10.8534 28.687 14.0915 27.4111C17.3296 26.1352 19.4592 23.0024 19.4599 19.5137V10.1411C21.3268 11.4826 23.5668 12.2021 25.8636 12.1981V7.5923C25.4139 7.59087 24.9657 7.54292 24.5258 7.44922Z" fill="#FE2C55"/>
<path d="M18.1308 18.3427V8.94326C19.9971 10.2858 22.2375 11.0055 24.5344 11.0002V7.4229C23.1774 7.13556 21.9504 6.41362 21.0383 5.36594C20.3098 4.89343 19.685 4.27702 19.2019 3.55434C18.7189 2.83165 18.3878 2.01785 18.2289 1.1626H14.8576V19.6752C14.7901 21.3268 13.6869 22.7544 12.1088 23.2322C10.5307 23.7099 8.82395 23.133 7.85633 21.7947C6.28473 20.9648 5.47812 19.1688 5.89997 17.4387C6.32184 15.7085 7.86387 14.4883 9.64009 14.4791C10.0273 14.4826 10.4119 14.5429 10.7817 14.658V11.0807C7.42964 11.1376 4.42773 13.1752 3.12956 16.2747C1.83135 19.3741 2.48208 22.95 4.7883 25.3899C6.22184 26.3608 7.91952 26.8636 9.64903 26.8298C14.3264 26.8298 18.1209 23.0329 18.1308 18.3427Z" fill="white"/>
</svg>
