<svg width="36" height="36" viewBox="0 0 36 36" fill="none" xmlns="http://www.w3.org/2000/svg">
<path fill-rule="evenodd" clip-rule="evenodd" d="M16.4864 0.96875H19.5139C23.6717 0.96875 26.1015 1.57943 28.2584 2.73582C30.4153 3.8922 32.1174 5.58131 33.2608 7.73819C34.4172 9.89504 35.0279 12.3247 35.0279 16.4825V19.4969C35.0279 23.6547 34.4172 26.0844 33.2608 28.2413C32.1044 30.3981 30.4153 32.1003 28.2584 33.2436C26.1015 34.4 23.6717 35.0107 19.5139 35.0107H16.4994C12.3415 35.0107 9.91177 34.4 7.75487 33.2436C5.59799 32.0873 3.89586 30.3981 2.75245 28.2413C1.59604 26.0844 0.985352 23.6547 0.985352 19.4969V16.4825C0.985352 12.3247 1.59604 9.89504 2.75245 7.73819C3.90886 5.58131 5.59799 3.87921 7.75487 2.73582C9.89881 1.57943 12.3415 0.96875 16.4864 0.96875Z" fill="#F0F0F0"/>
<path opacity="0.12" fill-rule="evenodd" clip-rule="evenodd" d="M35.028 18.998V19.4955C35.028 23.6533 34.4173 26.083 33.2609 28.2398C32.1045 30.3967 30.4153 32.0988 28.2584 33.2422C26.1015 34.3986 23.6718 35.0093 19.5139 35.0093H16.4995C13.0973 35.0093 10.8521 34.6004 8.96671 33.8182L5.8584 30.6175L35.028 18.998Z" fill="#001A33"/>
<path fill-rule="evenodd" clip-rule="evenodd" d="M6.20306 30.7291C7.79519 30.9051 9.78574 30.4511 11.1991 29.7649C17.3364 33.1571 26.9302 32.9951 32.7373 29.2788C32.9625 28.941 33.173 28.5896 33.3682 28.2254C34.5289 26.0607 35.1418 23.6221 35.1418 19.4492V16.4238C35.1418 12.2509 34.5289 9.81231 33.3682 7.64759C32.2207 5.48288 30.5124 3.78762 28.3476 2.62701C26.1828 1.46642 23.7442 0.853516 19.5712 0.853516H16.5327C12.9786 0.853516 10.6713 1.30091 8.73282 2.15502C8.62686 2.24991 8.52288 2.34642 8.4211 2.44454C2.73378 7.92694 2.30146 19.8109 7.1241 26.2665C7.12948 26.276 7.13544 26.2856 7.14199 26.2954C7.88532 27.3908 7.16807 29.3077 6.04657 30.4292C5.864 30.5987 5.9292 30.703 6.20306 30.7291Z" fill="#2569B2"/>
<path d="M14.9656 12.5059H8.30007V13.9351H12.9257L8.36498 19.5871C8.22207 19.795 8.11816 19.9899 8.11816 20.4316V20.7954H14.4069C14.7187 20.7954 14.9786 20.5356 14.9786 20.2238V19.4571H10.1191L14.4069 14.078C14.4719 14.0001 14.5888 13.8572 14.6408 13.7922L14.6668 13.7532C14.9137 13.3894 14.9656 13.0775 14.9656 12.7008V12.5059Z" fill="white"/>
<path d="M23.4514 20.7954H24.4V12.5059H22.9707V20.3147C22.9707 20.5746 23.1786 20.7954 23.4514 20.7954Z" fill="white"/>
<path d="M18.5657 14.3496C16.7726 14.3496 15.3174 15.8048 15.3174 17.5979C15.3174 19.3909 16.7726 20.8461 18.5657 20.8461C20.3588 20.8461 21.8141 19.3909 21.8141 17.5979C21.8271 15.8048 20.3718 14.3496 18.5657 14.3496ZM18.5657 19.5078C17.5133 19.5078 16.6557 18.6503 16.6557 17.5979C16.6557 16.5455 17.5133 15.6879 18.5657 15.6879C19.6182 15.6879 20.4757 16.5455 20.4757 17.5979C20.4757 18.6503 19.6312 19.5078 18.5657 19.5078Z" fill="white"/>
<path d="M28.622 14.2988C26.8159 14.2988 25.3477 15.7671 25.3477 17.5731C25.3477 19.3791 26.8159 20.8474 28.622 20.8474C30.428 20.8474 31.8963 19.3791 31.8963 17.5731C31.8963 15.7671 30.428 14.2988 28.622 14.2988ZM28.622 19.5091C27.5565 19.5091 26.6989 18.6515 26.6989 17.5861C26.6989 16.5207 27.5565 15.6631 28.622 15.6631C29.6874 15.6631 30.545 16.5207 30.545 17.5861C30.545 18.6515 29.6874 19.5091 28.622 19.5091Z" fill="white"/>
<path d="M21.0619 20.7929H21.8286V14.5303H20.4902V20.2343C20.4902 20.5331 20.7501 20.7929 21.0619 20.7929Z" fill="white"/>
</svg>
